M48
;Layer_Color=9474304
;FILE_FORMAT=2:5
INCH,LZ
;TYPE=PLATED
T1F00S00C0.01500
T2F00S00C0.01968
T3F00S00C0.02250
T4F00S00C0.02500
T5F00S00C0.02756
T6F00S00C0.02800
T7F00S00C0.03000
T8F00S00C0.03543
T9F00S00C0.04331
T10F00S00C0.04724
T11F00S00C0.04921
T12F00S00C0.05906
T13F00S00C0.12992
%
T01
X0285039Y0272047
X0289764Y0270472
X0294488Y0272441
Y0429921
X0289764Y0427953
X0285039Y0429528
X0255512Y0444094
X0285039Y0587008
X0289764Y0585433
X0294488Y0587402
T02
X0292126Y0091732
Y0096654
Y0101575
X0297244
Y0096654
Y0091732
X0287008
Y0096654
Y0101575
X028189
Y0096654
Y0091732
X0276772
Y0096654
Y0101575
X0271654
Y0096654
Y0091732
X0266535
Y0096654
Y0101575
X0269685Y0223031
Y0228937
Y0234842
Y0240748
Y0246654
X027559
Y0240748
Y0234842
Y0228937
Y0223031
X0281496
Y0228937
Y0234842
Y0240748
Y0246654
X0287402
Y0240748
Y0234842
Y0228937
Y0223031
X0293307
Y0228937
Y0234842
Y0240748
Y0246654
X0299213
Y0240748
Y0234842
Y0228937
Y0223031
X0305118
Y0228937
Y0234842
Y0240748
Y0246654
X0311024
Y0240748
Y0234842
Y0228937
Y0223031
X0316929
Y0228937
Y0234842
Y0240748
Y0246654
Y0380512
Y0386417
Y0392323
Y0398228
Y0404134
X0311024
Y0398228
Y0392323
Y0386417
Y0380512
X0305118
Y0386417
Y0392323
Y0398228
Y0404134
X0299213
Y0398228
Y0392323
Y0386417
Y0380512
X0293307
Y0386417
Y0392323
Y0398228
Y0404134
X0287402
Y0398228
Y0392323
Y0386417
Y0380512
X0281496
Y0386417
Y0392323
Y0398228
Y0404134
X027559
Y0398228
Y0392323
Y0386417
Y0380512
X0269685
Y0386417
Y0392323
Y0398228
Y0404134
Y0537992
Y0543898
Y0549803
Y0555709
Y0561614
X027559
Y0555709
Y0549803
Y0543898
Y0537992
X0281496
Y0543898
Y0549803
Y0555709
Y0561614
X0287402
Y0555709
Y0549803
Y0543898
Y0537992
X0293307
Y0543898
Y0549803
Y0555709
Y0561614
X0299213
Y0555709
Y0549803
Y0543898
Y0537992
X0305118
Y0543898
Y0549803
Y0555709
Y0561614
X0311024
Y0555709
Y0549803
Y0543898
Y0537992
X0316929
Y0543898
Y0549803
Y0555709
Y0561614
T03
X0312992Y0048228
X0306102Y0056102
X0295276Y0070866
Y0123032
X028937Y0137795
X0285433Y015748
X0245079Y0153543
X0244094Y0169291
X0234252Y0146654
X0232283Y013189
X0270669Y0122047
X0260827Y0108268
X0264764Y0072835
X0271654Y007185
X0290271Y0068376
X0202756Y0093504
X0169291Y0100394
Y0116142
X0128937Y0148622
X0124016Y017169
X0116142Y0047244
X0081693Y0048228
X0119094Y0173228
X0208661Y0195866
X0221639Y0192111
X022656Y0186206
X0231482Y01803
X0238189Y0209646
X0275295Y0199705
X0282283Y0200394
X0272742Y0270084
X0255512Y0286614
X0241141Y0325787
X0197835Y0304134
X0187008Y0288386
X0311024Y0270079
X0333465Y0255118
X031378Y0199705
Y0357185
X0311024Y0427559
X0306102Y0440945
X0333465Y0412598
X0272742Y0427564
X0275295Y0357185
X0282283Y0357874
X0261811Y0359252
X0245079Y0372047
X0221639Y0349592
X022656Y0343685
X0231482Y0337781
X0211614Y0336614
X0184055Y0394685
X0175197Y0389764
X0204724Y0454724
X0204724Y0462598
X0194882Y0503937
X0182087Y0507874
X0221457Y050689
X0226378Y0500983
X0231299Y0495079
X0238189Y0524606
X0275295Y0514665
X0282283Y0515354
X0272742Y0585045
X0255512Y0601575
X0311024Y0585039
X0333465Y0570079
X031378Y0514665
T04
X0135827Y0081693
X0216535Y0104331
X0202756Y0128937
X0250984
X0266732Y0142717
X0124016Y0091535
X0081693Y0204724
X0077756Y0295276
X0125Y0302165
X0167323Y0209646
X0246063Y0201772
X0260827Y020374
X0285433Y0184055
X0307087Y0284449
X0284449Y0340551
X0249016Y0360236
X0127953Y0382874
Y0396654
X0125Y0337598
X0065945Y0477362
X0068898Y0522638
X0072835Y0567913
X0262795Y0515748
X0270669Y0490158
X0287402Y0499016
X0307087Y0599409
T05
X0320866Y0127953
Y0141732
X0224016Y0240945
X0210236
X0319401Y029457
X033189Y0300394
X0326378Y0324409
Y0338189
X0319401Y0452051
X033189Y0457874
X0326378Y048189
X0224016Y0398425
X0210236
X0102362Y0616142
X0088583
X0210236Y0555906
X0224016
X0319401Y0609531
X033189Y0615354
X0326378Y063937
Y0495669
Y065315
T06
X0295276Y0166339
X0208661Y0145669
X0145669Y0123031
X0083661Y0094488
X0051181Y0062008
X0293307Y0483268
X0193898Y0366142
T07
X0303465Y0021654
X0293465Y0031654
X0283465Y0021654
X027
X025
X026Y0031654
T08
X0107795Y0235709
Y0245709
Y0255709
Y0265709
Y0275709
Y0285709
Y0295709
Y0305709
Y0315709
Y0325709
X0167795
Y0315709
Y0305709
Y0295709
Y0285709
Y0275709
Y0265709
Y0255709
Y0245709
Y0235709
Y0335709
Y0345709
Y0355709
Y0365709
Y0375709
Y0385709
Y0395709
Y0405709
Y0415709
Y0425709
X0107795
Y0415709
Y0405709
Y0395709
Y0385709
Y0375709
Y0365709
Y0355709
Y0345709
Y0335709
T09
X0147638Y053937
Y0557087
X0173228
Y053937
T10
X0101181Y0005906
X0127165
T11
X0022177Y0022025
Y0032025
Y0042025
Y0070249
Y0080249
Y0090249
Y0118474
Y0128474
Y0138474
Y0166699
Y0176699
Y0186699
Y0214924
Y0224924
Y0234924
Y0263149
Y0273149
Y0283149
Y0311374
Y0321374
X0216378Y0277559
X0226378
Y0435039
X0216378
X0022177Y0427823
Y0417823
Y0407823
Y0379598
Y0369598
Y0359598
Y0331374
Y0456048
Y0466048
Y0476048
Y0504273
Y0514273
Y0524273
Y0552498
Y0562498
Y0572498
Y0600723
Y0610723
Y0620723
X0122047Y055
Y054
Y053
Y052
Y051
Y05
X0216378Y059252
X0226378
X0197008Y0673228
X0187008
X0022177Y0668948
Y0658948
Y0648948
T12
X0366142Y0033465
Y0047244
Y0061024
Y0074803
Y0124016
Y0137795
X0213583Y0027559
X0199803
X0366142Y0214567
Y0228346
Y0242126
Y0255906
Y0305118
Y0318898
Y0372047
Y0385827
Y0399606
Y0413386
Y0462598
Y0476378
Y0529528
Y0543307
Y0557087
Y0570866
Y0620079
Y0633858
X0104331Y0669291
X0090551
T13
X0324803Y0024606
X0074803Y0025591
X036811Y0344488
X036811Y0665354
X0062992Y0665354
M30
